# xmcd CD database file
#
# Track frame offsets:
#	150
#	25977
#	48055
#	75385
#	94362
#	112985
#	133097
#	161280
#	182505
#	208707
#	232340
#
# Disc length: 3332 seconds
#
# Revision: 1
# Processed by: cddbd v1.5.1PL0 Copyright (c) Steve Scherf et al.
# Submitted via: CDex 1.50
#
DISCID=880d020b
DTITLE=Charchulla Steel Twins - Live
DYEAR=1900
DGENRE=Merengue
TTITLE0=Amor Azul
TTITLE1=Me Vasilia
TTITLE2=Rancho Grande
TTITLE3=El Hombre Marinero
TTITLE4=No Mas Querer De Tanto
TTITLE5=Dame La Mano Paloma
TTITLE6=Oh Goddam Raggae Man
TTITLE7=La Vaca Vieja
TTITLE8=Brozeel
TTITLE9=La Cucaracha
TTITLE10=Bajaro Amarillo
EXTD=
EXTT0=
EXTT1=
EXTT2=
EXTT3=
EXTT4=
EXTT5=
EXTT6=
EXTT7=
EXTT8=
EXTT9=
EXTT10=
PLAYORDER=
